<?xml version="1.0" encoding="UTF-8" standalone="no"?>
<svg width="13px" height="11px" viewBox="0 0 13 11" version="1.1" xmlns="http://www.w3.org/2000/svg" xmlns:xlink="http://www.w3.org/1999/xlink" xmlns:sketch="http://www.bohemiancoding.com/sketch/ns">
    <!-- Generator: Sketch 3.3.3 (12072) - http://www.bohemiancoding.com/sketch -->
    <title>check - FontAwesome</title>
    <desc>Created with Sketch.</desc>
    <defs></defs>
    <g id="Page-1" stroke="none" stroke-width="1" fill="none" fill-rule="evenodd" sketch:type="MSPage">
        <path d="M12.8689154,2.7558001 C12.8689154,2.96326174 12.7963049,3.13960149 12.6510817,3.28482463 L7.01852638,8.91737999 L5.96047731,9.97542906 C5.81525416,10.1206522 5.63891442,10.1932627 5.43145278,10.1932627 C5.22399114,10.1932627 5.04765139,10.1206522 4.90242824,9.97542906 L3.84437917,8.91737999 L1.02810149,6.10110231 C0.882878342,5.95587916 0.810267857,5.77953942 0.810267857,5.57207778 C0.810267857,5.36461614 0.882878342,5.18827639 1.02810149,5.04305324 L2.08615056,3.98500417 C2.23137371,3.83978102 2.40771346,3.76717054 2.6151751,3.76717054 C2.82263674,3.76717054 2.99897649,3.83978102 3.14419963,3.98500417 L5.43145278,6.28003708 L10.5349836,1.16872649 C10.6802067,1.02350334 10.8565465,0.950892857 11.0640081,0.950892857 C11.2714698,0.950892857 11.4478095,1.02350334 11.5930327,1.16872649 L12.6510817,2.22677556 C12.7963049,2.37199871 12.8689154,2.54833846 12.8689154,2.7558001 L12.8689154,2.7558001 Z" id="check---FontAwesome" fill="#000000" sketch:type="MSShapeGroup"></path>
    </g>
</svg>