<?xml version="1.0" encoding="UTF-8" standalone="no"?>
<svg width="13px" height="13px" viewBox="0 0 13 13" version="1.1" xmlns="http://www.w3.org/2000/svg" xmlns:xlink="http://www.w3.org/1999/xlink" xmlns:sketch="http://www.bohemiancoding.com/sketch/ns">
    <!-- Generator: Sketch 3.3.3 (12072) - http://www.bohemiancoding.com/sketch -->
    <title>times - FontAwesome</title>
    <desc>Created with Sketch.</desc>
    <defs></defs>
    <g id="Page-1" stroke="none" stroke-width="1" fill="none" fill-rule="evenodd" sketch:type="MSPage">
        <path d="M12.6349122,9.73990893 C12.6349122,10.0069878 12.541436,10.2340015 12.3544808,10.4209567 L10.9923853,11.7830522 C10.80543,11.9700074 10.5784164,12.0634837 10.3113375,12.0634837 C10.0442586,12.0634837 9.81724495,11.9700074 9.63028973,11.7830522 L6.68575969,8.83852218 L3.74122964,11.7830522 C3.55427442,11.9700074 3.32726076,12.0634837 3.06018187,12.0634837 C2.79310298,12.0634837 2.56608933,11.9700074 2.37913411,11.7830522 L1.01703858,10.4209567 C0.830083352,10.2340015 0.736607143,10.0069878 0.736607143,9.73990893 C0.736607143,9.47283004 0.830083352,9.24581638 1.01703858,9.05886116 L3.96156862,6.11433111 L1.01703858,3.16980107 C0.830083352,2.98284584 0.736607143,2.75583219 0.736607143,2.4887533 C0.736607143,2.22167441 0.830083352,1.99466076 1.01703858,1.80770554 L2.37913411,0.445610004 C2.56608933,0.258654781 2.79310298,0.165178571 3.06018187,0.165178571 C3.32726076,0.165178571 3.55427442,0.258654781 3.74122964,0.445610004 L6.68575969,3.39014005 L9.63028973,0.445610004 C9.81724495,0.258654781 10.0442586,0.165178571 10.3113375,0.165178571 C10.5784164,0.165178571 10.80543,0.258654781 10.9923853,0.445610004 L12.3544808,1.80770554 C12.541436,1.99466076 12.6349122,2.22167441 12.6349122,2.4887533 C12.6349122,2.75583219 12.541436,2.98284584 12.3544808,3.16980107 L9.40995075,6.11433111 L12.3544808,9.05886116 C12.541436,9.24581638 12.6349122,9.47283004 12.6349122,9.73990893 L12.6349122,9.73990893 Z" id="times---FontAwesome" fill="#000000" sketch:type="MSShapeGroup"></path>
    </g>
</svg>