<?xml version="1.0" encoding="UTF-8" standalone="no"?>
<svg width="5px" height="14px" viewBox="0 0 5 14" version="1.1" xmlns="http://www.w3.org/2000/svg" xmlns:xlink="http://www.w3.org/1999/xlink" xmlns:sketch="http://www.bohemiancoding.com/sketch/ns">
    <!-- Generator: Sketch 3.3.3 (12072) - http://www.bohemiancoding.com/sketch -->
    <title>exclamation - FontAwesome</title>
    <desc>Created with Sketch.</desc>
    <defs></defs>
    <g id="Page-1" stroke="none" stroke-width="1" fill="none" fill-rule="evenodd" sketch:type="MSPage">
        <path d="M4.47882326,10.9123377 L4.47882326,12.9805195 C4.47882326,13.1405582 4.42034847,13.2790511 4.30339713,13.3960024 C4.18644578,13.5129538 4.04795285,13.5714286 3.88791417,13.5714286 L1.52427781,13.5714286 C1.36423913,13.5714286 1.2257462,13.5129538 1.10879485,13.3960024 C0.991843511,13.2790511 0.933368717,13.1405582 0.933368717,12.9805195 L0.933368717,10.9123377 C0.933368717,10.752299 0.991843511,10.6138061 1.10879485,10.4968547 C1.2257462,10.3799034 1.36423913,10.3214286 1.52427781,10.3214286 L3.88791417,10.3214286 C4.04795285,10.3214286 4.18644578,10.3799034 4.30339713,10.4968547 C4.42034847,10.6138061 4.47882326,10.752299 4.47882326,10.9123377 L4.47882326,10.9123377 Z M4.7558119,1.16233766 L4.49728917,8.25324675 C4.49113384,8.41328543 4.42804261,8.55177837 4.3080136,8.66872971 C4.18798459,8.78568105 4.04795285,8.84415584 3.88791417,8.84415584 L1.52427781,8.84415584 C1.36423913,8.84415584 1.22420739,8.78568105 1.10417838,8.66872971 C0.984149367,8.55177837 0.921058142,8.41328543 0.914902808,8.25324675 L0.656380081,1.16233766 C0.650224747,1.00229898 0.70408311,0.86380605 0.817956785,0.746854708 C0.931830461,0.629903365 1.06878458,0.571428571 1.22882326,0.571428571 L4.18336872,0.571428571 C4.3434074,0.571428571 4.48036152,0.629903365 4.59423519,0.746854708 C4.70810887,0.86380605 4.76196723,1.00229898 4.7558119,1.16233766 L4.7558119,1.16233766 Z" id="exclamation---FontAwesome" fill="#000000" sketch:type="MSShapeGroup"></path>
    </g>
</svg>