<?xml version="1.0" encoding="UTF-8" standalone="no"?>
<svg width="12px" height="16px" viewBox="0 0 12 16" version="1.1" xmlns="http://www.w3.org/2000/svg" xmlns:xlink="http://www.w3.org/1999/xlink" xmlns:sketch="http://www.bohemiancoding.com/sketch/ns">
    <!-- Generator: Sketch 3.3.3 (12072) - http://www.bohemiancoding.com/sketch -->
    <title>lock - FontAwesome</title>
    <desc>Created with Sketch.</desc>
    <defs></defs>
    <g id="Page-1" stroke="none" stroke-width="1" fill="none" fill-rule="evenodd" sketch:type="MSPage">
        <path d="M3.33333333,7.23809524 L8.66666667,7.23809524 L8.66666667,5.23809524 C8.66666667,4.50198045 8.4062526,3.87351451 7.88541667,3.35267857 C7.36458073,2.83184263 6.73611479,2.57142857 6,2.57142857 C5.26388521,2.57142857 4.63541927,2.83184263 4.11458333,3.35267857 C3.5937474,3.87351451 3.33333333,4.50198045 3.33333333,5.23809524 L3.33333333,7.23809524 Z M12,8.23809524 L12,14.2380952 C12,14.5158744 11.9027787,14.7519832 11.7083333,14.9464286 C11.5138879,15.140874 11.2777792,15.2380952 11,15.2380952 L1,15.2380952 C0.722220833,15.2380952 0.486112083,15.140874 0.291666667,14.9464286 C0.09722125,14.7519832 0,14.5158744 0,14.2380952 L0,8.23809524 C0,7.96031607 0.09722125,7.72420732 0.291666667,7.5297619 C0.486112083,7.33531649 0.722220833,7.23809524 1,7.23809524 L1.33333333,7.23809524 L1.33333333,5.23809524 C1.33333333,3.96031107 1.79166208,2.86309982 2.70833333,1.94642857 C3.62500458,1.02975732 4.72221583,0.571428571 6,0.571428571 C7.27778417,0.571428571 8.37499542,1.02975732 9.29166667,1.94642857 C10.2083379,2.86309982 10.6666667,3.96031107 10.6666667,5.23809524 L10.6666667,7.23809524 L11,7.23809524 C11.2777792,7.23809524 11.5138879,7.33531649 11.7083333,7.5297619 C11.9027787,7.72420732 12,7.96031607 12,8.23809524 L12,8.23809524 Z" id="lock---FontAwesome" fill="#000000" sketch:type="MSShapeGroup"></path>
    </g>
</svg>