<?xml version="1.0" encoding="UTF-8" standalone="no"?>
<svg width="13px" height="13px" viewBox="0 0 13 13" version="1.1" xmlns="http://www.w3.org/2000/svg" xmlns:xlink="http://www.w3.org/1999/xlink" xmlns:sketch="http://www.bohemiancoding.com/sketch/ns">
    <!-- Generator: Sketch 3.3.3 (12072) - http://www.bohemiancoding.com/sketch -->
    <title>exclamation-triangle - FontAwesome</title>
    <desc>Created with Sketch.</desc>
    <defs></defs>
    <g id="Page-1" stroke="none" stroke-width="1" fill="none" fill-rule="evenodd" sketch:type="MSPage">
        <path d="M7.42073174,10.6778986 L7.42073174,9.30110842 C7.42073174,9.23347629 7.39778547,9.17671445 7.35189223,9.13082122 C7.305999,9.08492798 7.25165256,9.06198171 7.1888513,9.06198171 L5.79756863,9.06198171 C5.73476736,9.06198171 5.68042093,9.08492798 5.63452769,9.13082122 C5.58863446,9.17671445 5.56568819,9.23347629 5.56568819,9.30110842 L5.56568819,10.6778986 C5.56568819,10.7455307 5.58863446,10.8022925 5.63452769,10.8481858 C5.68042093,10.894079 5.73476736,10.9170253 5.79756863,10.9170253 L7.1888513,10.9170253 C7.25165256,10.9170253 7.305999,10.894079 7.35189223,10.8481858 C7.39778547,10.8022925 7.42073174,10.7455307 7.42073174,10.6778986 L7.42073174,10.6778986 Z M7.40623921,7.96779586 L7.53667196,4.64176074 C7.53667196,4.58379034 7.51251799,4.53789779 7.46420932,4.50408173 C7.40140806,4.45094219 7.34343853,4.42437282 7.29029899,4.42437282 L5.69612094,4.42437282 C5.6429814,4.42437282 5.58501187,4.45094219 5.5222106,4.50408173 C5.47390194,4.53789779 5.44974796,4.58862113 5.44974796,4.65625327 L5.57293445,7.96779586 C5.57293445,8.01610453 5.59708842,8.05595859 5.64539709,8.08735922 C5.69370576,8.11875985 5.75167529,8.13445993 5.81930742,8.13445993 L7.15986624,8.13445993 C7.22749838,8.13445993 7.28426021,8.11875985 7.33015344,8.08735922 C7.37604668,8.05595859 7.40140835,8.01610453 7.40623921,7.96779586 L7.40623921,7.96779586 Z M7.30479152,1.19978539 L12.8699222,11.4025249 C13.0390025,11.7068696 13.0341717,12.0112096 12.8554297,12.3155542 C12.7733049,12.4556493 12.660989,12.5667576 12.5184784,12.6488823 C12.3759678,12.7310071 12.2225901,12.7720688 12.0583406,12.7720688 L0.928079299,12.7720688 C0.763829829,12.7720688 0.610452111,12.7310071 0.467941542,12.6488823 C0.325430973,12.5667576 0.213115006,12.4556493 0.130990271,12.3155542 C-0.0477517983,12.0112096 -0.0525825926,11.7068696 0.116497744,11.4025249 L5.68162841,1.19978539 C5.76375314,1.05002853 5.87727681,0.931674066 6.02220281,0.844718464 C6.16712881,0.757762863 6.32412963,0.714285714 6.49320996,0.714285714 C6.6622903,0.714285714 6.81929111,0.757762863 6.96421712,0.844718464 C7.10914312,0.931674066 7.22266678,1.05002853 7.30479152,1.19978539 L7.30479152,1.19978539 Z" id="exclamation-triangle---FontAwesome" fill="#000000" sketch:type="MSShapeGroup"></path>
    </g>
</svg>